# xmcd
#
# Track frame offsets: 
#        182
#        10897
#        21485
#        30772
#        39947
#        48687
#        59650
#        71320
#        85077
#        97312
#        108235
#
# Disc length: 1598 seconds
#
# Revision: 1
# Processed by: cddbd v1.4PL0 Copyright (c) Steve Scherf et al.
# Submitted via: ExactAudioCopy v0.90b3
#
DISCID=89063c0b
DTITLE=George Jones - Honky Tonkin'
DYEAR=1900
DGENRE=Country
TTITLE0=Who Shot Sam
TTITLE1=Treasure Of Love
TTITLE2=Big Harlan Taylor
TTITLE3=Honky Tonkin'
TTITLE4=If I Don't Love You (Grits Ain't Groceries)
TTITLE5=Wandering Soul
TTITLE6=Revenooer Man
TTITLE7=Family Bible
TTITLE8=Oh' Lonesome Me
TTITLE9=Will The Circle Be Unbroken
TTITLE10=You're Still On My Mind
EXTD=
EXTT0=
EXTT1=
EXTT2=
EXTT3=
EXTT4=
EXTT5=
EXTT6=
EXTT7=
EXTT8=
EXTT9=
EXTT10=
PLAYORDER=
